<svg width="1000" height="1000" viewBox="0 0 1000 1000" fill="none" xmlns="http://www.w3.org/2000/svg">
<path d="M715.474 138.789C721.247 128.789 735.681 128.789 741.454 138.789L933.447 471.33C939.221 481.33 932.004 493.83 920.457 493.83H780.098C774.739 493.83 769.787 490.971 767.107 486.33L645.294 275.343C642.615 270.702 642.615 264.984 645.294 260.343L715.474 138.789Z" fill="#3E8472"/>
<path d="M705.081 132.789C710.855 122.789 703.638 110.289 692.091 110.289L283.66 110.289C278.301 110.289 273.349 113.148 270.67 117.789L54.3299 492.5C51.6504 497.141 51.6504 502.859 54.3299 507.5L258.545 861.211C264.319 871.211 278.753 871.211 284.526 861.211L354.706 739.657C357.385 735.016 357.385 729.298 354.706 724.657L229.33 507.5C226.65 502.859 226.65 497.141 229.33 492.5L358.17 269.343C360.849 264.702 365.801 261.843 371.16 261.843H621.911C627.27 261.843 632.222 258.984 634.902 254.343L705.081 132.789Z" fill="#F3E8DE"/>
<path d="M378.088 738.157C372.729 738.157 367.777 741.016 365.098 745.657L294.918 867.211C289.145 877.211 296.362 889.711 307.909 889.711H691.287C702.834 889.711 710.051 877.211 704.277 867.211L634.098 745.657C631.418 741.016 626.466 738.157 621.107 738.157H378.088Z" fill="#3E8472"/>
<path d="M767.304 513.33C769.983 508.689 774.935 505.83 780.294 505.83H920.653C932.2 505.83 939.417 518.33 933.643 528.33L898.288 589.567C895.609 594.208 890.657 597.067 885.298 597.067H744.939C733.392 597.067 726.175 584.567 731.948 574.567L767.304 513.33Z" fill="#3E8472"/>
<path d="M681.051 662.724C686.825 652.724 701.258 652.724 707.032 662.724L777.211 784.278C779.891 788.919 779.891 794.637 777.211 799.278L741.052 861.908C735.279 871.908 720.845 871.908 715.072 861.908L644.892 740.353C642.213 735.712 642.213 729.994 644.892 725.353L681.051 662.724Z" fill="#3E8472"/>
<path d="M374.304 297.711C376.984 293.07 381.936 290.211 387.295 290.211H591.672C603.219 290.211 610.435 302.711 604.662 312.711L588.482 340.735C585.803 345.376 580.851 348.235 575.492 348.235H420.795C415.436 348.235 410.484 351.094 407.804 355.735L328.965 492.289C326.285 496.93 326.285 502.648 328.965 507.289L406.313 641.261C408.993 645.902 408.993 651.62 406.313 656.261L390.134 684.285C384.36 694.285 369.927 694.285 364.153 684.285L261.965 507.289C259.285 502.648 259.285 496.93 261.965 492.289L374.304 297.711Z" fill="#F3E8DE"/>
<path d="M582.791 658.844C580.112 654.203 575.16 651.344 569.801 651.344L431.669 651.344C426.31 651.344 421.358 654.203 418.679 658.844L402.499 686.867C396.726 696.867 403.943 709.367 415.49 709.367L585.98 709.367C597.527 709.367 604.744 696.867 598.971 686.867L582.791 658.844Z" fill="#3E8472"/>
<path d="M596.902 350.152C594.222 354.793 594.222 360.511 596.902 365.152L666.962 486.5C669.642 491.141 674.593 494 679.952 494L712.311 494C723.858 494 731.075 481.5 725.302 471.5L639.062 322.128C633.288 312.128 618.855 312.128 613.081 322.128L596.902 350.152Z" fill="#3E8472"/>
</svg>
